<svg xmlns="http://www.w3.org/2000/svg" viewBox="0 0 152 152"><defs><style>.cls-1{fill:#fff;}</style></defs><g id="Layer_2" data-name="Layer 2"><g id="Layer_1-2" data-name="Layer 1"><g id="g3261"><g id="path3263"><path class="cls-1" d="M76,152a76,76,0,1,1,76-76A76.08,76.08,0,0,1,76,152ZM76,15.78A60.22,60.22,0,1,0,136.22,76,60.28,60.28,0,0,0,76,15.78Z"/></g></g><path id="path3267" class="cls-1" d="M70.7,40v7.73c-3.12,0-17.19,4-17.19,16.76C53.51,75.85,63.66,78.94,70.7,80V92.8c-5.13-1.47-6.07-5.42-6.78-8.69H52.64c.7,12.78,11.92,18.73,18.06,19.63v7.86H81.43v-7.74C89.92,103.41,100,96.08,100,86c0-11.51-10-14.77-18.54-15.65V58.61c3.35.24,6,3.57,6.25,7H98.85c0-11.41-10.38-17.42-17.53-17.83V40Zm.06,18.72v9.76C63.2,68.36,63.06,60.07,70.76,58.72ZM81.55,81.79c9.36.24,10.39,9.58,0,11.07Z"/></g></g></svg>