<svg xmlns="http://www.w3.org/2000/svg" viewBox="0 0 189.55 142.16"><defs><style>.cls-1{fill:#fff;}</style></defs><g id="Layer_2" data-name="Layer 2"><g id="Layer_1-2" data-name="Layer 1"><path class="cls-1" d="M67.6,79.45C18.47,43.79,14.73,40.65,3.41,31.8a8.9,8.9,0,0,1-3.41-7v-7A17.78,17.78,0,0,1,17.77,0h154a17.78,17.78,0,0,1,17.77,17.77v7a8.86,8.86,0,0,1-3.41,7c-11.33,8.89-15.07,12-64.19,47.65C115.73,84,103.36,94.92,94.77,94.77,86.18,94.92,73.82,84,67.6,79.45Zm122-30.77v75.71a17.78,17.78,0,0,1-17.77,17.77h-154A17.78,17.78,0,0,1,0,124.39V48.72A2.21,2.21,0,0,1,3.59,47C11.88,53.42,22.88,61.6,60.64,89c7.81,5.7,21,17.69,34.13,17.62,13.22.11,26.66-12.15,34.17-17.62,37.77-27.44,48.72-35.66,57-42.1A2.23,2.23,0,0,1,189.55,48.68Z"/></g></g></svg>