<svg xmlns="http://www.w3.org/2000/svg" width="24" height="18" viewBox="0 0 24 18">
  <defs>
    <style>
      .cls-1 {
        fill: silver;
        fill-rule: evenodd;
      }
    </style>
  </defs>
  <path id="email-icon" class="cls-1" d="M536.045,573.443c-1.05.816-2.437,1.856-7.219,5.33-0.951.694-2.653,2.245-4.326,2.231-1.664.009-3.333-1.509-4.322-2.231-4.781-3.474-6.173-4.51-7.223-5.325a0.28,0.28,0,0,0-.455.22v9.581a2.25,2.25,0,0,0,2.25,2.25h19.5a2.25,2.25,0,0,0,2.25-2.25v-9.585A0.283,0.283,0,0,0,536.045,573.443ZM524.5,579.5c1.087,0.018,2.653-1.369,3.441-1.941,6.22-4.514,6.693-4.908,8.128-6.033a1.121,1.121,0,0,0,.431-0.886v-0.891a2.25,2.25,0,0,0-2.25-2.249h-19.5a2.25,2.25,0,0,0-2.25,2.249v0.891a1.128,1.128,0,0,0,.431.886c1.435,1.12,1.908,1.519,8.128,6.033C521.847,578.131,523.412,579.518,524.5,579.5Z" transform="translate(-512.5 -567.5)"/>
</svg>
