<svg xmlns="http://www.w3.org/2000/svg" width="27.688" height="21.626" viewBox="0 0 27.688 21.626">
  <defs>
    <style>
      .cls-1 {
        fill: #191926;
        fill-rule: evenodd;
      }
    </style>
  </defs>
  <path id="exchange-icon" class="cls-1" d="M676.163,504.868a1.3,1.3,0,0,0,1.3,1.3h19.458v2.595a1.3,1.3,0,0,0,2.215.917l4.324-4.324a1.3,1.3,0,0,0,0-1.835l-4.324-4.324a1.3,1.3,0,0,0-2.215.917v2.6H677.46a1.3,1.3,0,0,0-1.3,1.3v0.865Zm26.377,8.216H683.081v-2.595a1.3,1.3,0,0,0-2.214-.917l-4.324,4.324a1.3,1.3,0,0,0,0,1.835l4.324,4.323a1.3,1.3,0,0,0,2.214-.917v-2.594H702.54a1.3,1.3,0,0,0,1.3-1.3v-0.865A1.3,1.3,0,0,0,702.54,513.084Z" transform="translate(-676.156 -498.812)"/>
</svg>
