<svg xmlns="http://www.w3.org/2000/svg" viewBox="0 0 152.2 152.2"><defs><style>.cls-1{fill:#fff;}</style></defs><g id="Layer_2" data-name="Layer 2"><g id="Layer_1-2" data-name="Layer 1"><path class="cls-1" d="M152.2,0s-57-.13-101.42,44.3a48.54,48.54,0,0,0-5.49,6.57c-7.88-.62-19.93-.37-26.08,5.78C4.8,71.06,0,95.07,0,95.07l31.74-4.53v10.88l19,19H61.66L57.12,152.2s24-4.81,38.43-19.21c6.15-6.15,6.4-18.2,5.78-26.08a48.54,48.54,0,0,0,6.57-5.49C152.33,57,152.2,0,152.2,0ZM88.86,50.64a12.7,12.7,0,1,1,12.7,12.7A12.69,12.69,0,0,1,88.86,50.64Z"/><path class="cls-1" d="M40.7,123.86c-6.19,6.19-15.48,3.1-15.48,3.1s-3.09-9.29,3.1-15.48a8.31,8.31,0,0,1,1.24-.82l-2.9-2.91a14.33,14.33,0,0,0-6.59,3.73c-8.67,8.67-7.29,27.92-7.29,27.92s19.14,1.5,27.92-7.29a14.33,14.33,0,0,0,3.73-6.59l-2.91-2.9A7.2,7.2,0,0,1,40.7,123.86Z"/></g></g></svg>