<svg xmlns="http://www.w3.org/2000/svg" viewBox="0 0 190 147.78"><defs><style>.cls-1{fill:#fff;}</style></defs><g id="Layer_2" data-name="Layer 2"><g id="Layer_1-2" data-name="Layer 1"><path class="cls-1" d="M68.61,105.56A83.91,83.91,0,0,1,31.9,97.31a58.08,58.08,0,0,1-29.26,8.25A2.59,2.59,0,0,1,.23,104a2.61,2.61,0,0,1,.5-2.87,74.79,74.79,0,0,0,11.81-18C4.65,74.52,0,64.09,0,52.78,0,23.62,30.71,0,68.61,0s68.61,23.62,68.61,52.78S106.51,105.56,68.61,105.56Zm120.66,37.76a2.65,2.65,0,0,1,.5,2.88,2.61,2.61,0,0,1-2.41,1.58,58.08,58.08,0,0,1-29.26-8.25,83.49,83.49,0,0,1-36.71,8.25c-28.44,0-52.85-13.33-63.24-32.3a97.27,97.27,0,0,0,10.46.63c43.64,0,79.17-28.4,79.17-63.33a48.47,48.47,0,0,0-.43-6.63C172.35,54,190,72.93,190,95c0,11.31-4.65,21.77-12.54,30.35A73.5,73.5,0,0,0,189.27,143.32Z"/></g></g></svg>