<svg xmlns="http://www.w3.org/2000/svg" viewBox="0 0 120.62 149"><defs><style>.cls-1{fill:#fff;fill-rule:evenodd;}</style></defs><g id="Layer_2" data-name="Layer 2"><g id="Layer_1-2" data-name="Layer 1"><path class="cls-1" d="M40.06,71.11a3.15,3.15,0,0,0-4.31,1.11l-3.22,5.43A3.15,3.15,0,0,0,33.64,82L58.57,96.73a3.16,3.16,0,0,0,4.32-1.11L89,51.51a3.15,3.15,0,0,0-1.11-4.32L82.48,44a3.15,3.15,0,0,0-4.32,1.1l-21.3,36Z"/><path class="cls-1" d="M60.31,0,0,21.29V69.66a71,71,0,0,0,30,58L60.31,149l30.27-21.37a71,71,0,0,0,30-58V21.29Zm46.12,69.66A56.77,56.77,0,0,1,82.4,116L60.31,131.63,38.22,116a56.77,56.77,0,0,1-24-46.38V31.33L60.31,15.05l46.12,16.28Z"/></g></g></svg>