<svg xmlns="http://www.w3.org/2000/svg" viewBox="0 0 115.81 152"><defs><style>.cls-1{fill:#fff;}</style></defs><g id="Layer_2" data-name="Layer 2"><g id="Layer_1-2" data-name="Layer 1"><path class="cls-1" d="M101.33,50.67H94.1V36.19a36.2,36.2,0,0,0-72.39,0V50.67H14.48A14.47,14.47,0,0,0,0,65.14v72.38A14.48,14.48,0,0,0,14.48,152h86.85a14.48,14.48,0,0,0,14.48-14.48V65.14A14.47,14.47,0,0,0,101.33,50.67ZM57.9,115.81a14.48,14.48,0,1,1,14.48-14.48A14.47,14.47,0,0,1,57.9,115.81ZM80.34,50.67H35.47V36.19a22.44,22.44,0,1,1,44.87,0Z"/></g></g></svg>