<svg xmlns="http://www.w3.org/2000/svg" viewBox="0 0 189.55 189.55"><defs><style>.cls-1{fill:#fff;}</style></defs><g id="Layer_2" data-name="Layer 2"><g id="Layer_1-2" data-name="Layer 1"><path class="cls-1" d="M189.55,142.15a47.34,47.34,0,0,1-76.26,37.54,90.14,90.14,0,0,1-18.54,2A86.84,86.84,0,0,1,7.87,94.79a91.85,91.85,0,0,1,2-18.53A47.34,47.34,0,0,1,76.3,9.9a89.46,89.46,0,0,1,18.54-2,86.84,86.84,0,0,1,86.88,86.88,92.6,92.6,0,0,1-2,18.54A46.7,46.7,0,0,1,189.55,142.15Zm-44.78-26.7c0-21.5-20.86-28.91-38.38-32.84C86,77.87,77.15,77,77.15,68.64c0-6.56,6.9-9.52,17.77-9.52,19.38,0,19.76,14.18,31.74,14.18,8,0,12.82-6.31,12.82-13.46,0-14.18-23.57-23.45-46.89-23.45-21.37,0-46.17,9.27-46.17,34.32,0,27.6,23.41,30.39,49.86,36.91,11,2.71,17.77,3.93,17.77,11.85,0,6.3-7,11.13-17.9,11.13-22.85,0-24.08-19-37.28-19-8.68,0-12.49,6.18-12.49,13,0,15.15,23.23,27.51,51,27.51C120.61,152.05,144.77,140.46,144.77,115.45Z"/></g></g></svg>