<svg xmlns="http://www.w3.org/2000/svg" viewBox="0 0 128.05 122.56"><defs><style>.cls-1{fill:#88d860;}</style></defs><g id="Layer_2" data-name="Layer 2"><g id="Layer_1-2" data-name="Layer 1"><path class="cls-1" d="M64,12.94,77.56,40.38l2.32,4.71,5.2.76,30.28,4.41L93.45,71.61l-3.76,3.67.89,5.19,5.17,30.13L68.68,96.37,64,93.92l-4.66,2.45L32.3,110.6l5.18-30.13.89-5.19L34.6,71.61,12.69,50.26,43,45.85l5.2-.76,2.33-4.71L64,12.94M64,0a7.54,7.54,0,0,0-6.85,4.26L41.53,36l-35,5.1A7.66,7.66,0,0,0,2.32,54.12l25.3,24.65-6,34.83a7.67,7.67,0,0,0,7.55,9,7.49,7.49,0,0,0,3.55-.9L64,105.22l31.28,16.44a7.64,7.64,0,0,0,11.1-8.06l-6-34.83,25.3-24.65a7.66,7.66,0,0,0-4.24-13.07l-35-5.1L70.9,4.26A7.62,7.62,0,0,0,64,0Z"/></g></g></svg>