<svg xmlns="http://www.w3.org/2000/svg" viewBox="0 0 168.5 121"><defs><style>.cls-1{fill:#fff;}</style></defs><g id="Layer_2" data-name="Layer 2"><g id="Layer_1-2" data-name="Layer 1"><path class="cls-1" d="M133.33,69.27h0a11.4,11.4,0,0,0-.89-.81L100,39.18,72.12,43.59C64.42,44.81,43,42.25,43,16.5c0-8,5.91-9.8,9.67-11.18S67.75,0,67.75,0H0L.09,66H18.83l48.33,50.53A11,11,0,0,0,87,110a11.45,11.45,0,0,0-.12-1.56A11,11,0,0,0,103.5,99a11.45,11.45,0,0,0-.12-1.56A11,11,0,0,0,120,88a11.45,11.45,0,0,0-.12-1.56,11,11,0,0,0,13.45-17.17Z"/><path class="cls-1" d="M136.5,16.5l-27.42-15c-.22-.13-.43-.24-.66-.36l-.21-.11h0a10.91,10.91,0,0,0-4.67-1,11.12,11.12,0,0,0-2.84.38h0l-.14,0A11.52,11.52,0,0,0,99.2.87L54,16.5v2.75A13.74,13.74,0,0,0,70.64,32.69l32.86-5.21s28.88,25.84,33.92,30.89c4.84,4.84,9.62,8.48,10,18.63H168.5V11Z"/></g></g></svg>