<svg xmlns="http://www.w3.org/2000/svg" viewBox="0 0 189.72 131"><defs><style>.cls-1{fill:#fff;}</style></defs><g id="Layer_2" data-name="Layer 2"><g id="Layer_1-2" data-name="Layer 1"><path class="cls-1" d="M75.49,55.34a107.08,107.08,0,0,0,14.28,5.09l2.45.73v24a13.54,13.54,0,0,1-7.84-4.35,13.93,13.93,0,0,1-3.44-7.78H62.56a24.79,24.79,0,0,0,8.89,17.71q8,6.81,20.77,7.91v10h4.66V98.91H97q9.81,0,16.67-3.37a24.18,24.18,0,0,0,10.29-9A22.79,22.79,0,0,0,127.4,74.4q0-8.22-3.86-13.3a24.94,24.94,0,0,0-9.38-7.66,114.83,114.83,0,0,0-14.22-5.27l-3.06-1V23.9a12.37,12.37,0,0,1,6.92,3.74,12.86,12.86,0,0,1,3.25,6.92h18.63a24.47,24.47,0,0,0-8.52-16.73q-7.53-6.55-20.28-7.41V0H92.22V10.3a39.82,39.82,0,0,0-15.38,3.06,25,25,0,0,0-10.67,8.33,21.17,21.17,0,0,0-3.86,12.63q0,8.34,3.86,13.42A24.53,24.53,0,0,0,75.49,55.34Zm21.39,7.41a26.05,26.05,0,0,1,8.88,4.72,9.24,9.24,0,0,1,3.13,7.3,10.19,10.19,0,0,1-3.19,7.78q-3.18,3-8.82,3.12ZM83.82,26.35c2-1.71,4.8-2.65,8.4-2.82V45.59a25.26,25.26,0,0,1-8.46-4.84,9.39,9.39,0,0,1-2.94-7.17A9,9,0,0,1,83.82,26.35Z"/><path class="cls-1" d="M52.94,34.32a31,31,0,0,1,4.15-15.89H9a9,9,0,0,0-9,9V43.73H54.08A37,37,0,0,1,52.94,34.32Z"/><path class="cls-1" d="M180.71,18.43H130.53a34.79,34.79,0,0,1,5,15.21l1,10.09h53.21V27.44A9,9,0,0,0,180.71,18.43Z"/><path class="cls-1" d="M137.3,74.4a32.45,32.45,0,0,1-4.85,17.24,33.86,33.86,0,0,1-14.26,12.55,41.68,41.68,0,0,1-11.4,3.59v10.57H82.86V106.82a42.46,42.46,0,0,1-17.37-8.7A34.32,34.32,0,0,1,53.22,73.81L52.45,64H0v58a9,9,0,0,0,9,9h171.7a9,9,0,0,0,9-9V64H135.86A35.88,35.88,0,0,1,137.3,74.4Z"/></g></g></svg>