<svg xmlns="http://www.w3.org/2000/svg" viewBox="0 0 1356.89 358.09"><defs><style>.cls-1{fill:#fff;}</style></defs><g id="Layer_2" data-name="Layer 2"><g id="Layer_1-2" data-name="Layer 1"><path class="cls-1" d="M120.32,0H68.46l-49,113.85L0,159.18H44.53l12.64-31.89h73.42l12.59,31.89h45.54Zm-49,92.72L93.78,37.08l22.34,55.67Z"/><polygon class="cls-1" points="392.36 159.15 392.36 0 329.54 0 293.58 102.84 256.75 0.23 193.42 0 193.42 159.15 233.21 159.15 233.21 41.88 275.5 159.15 310.39 159.15 352.57 41.88 352.57 159.15 392.36 159.15"/><polygon class="cls-1" points="549.41 35.6 549.41 0 419.58 0 419.58 159.15 549.41 159.15 549.41 124.59 459.78 124.59 459.78 96.33 547.32 96.33 547.32 62.82 459.78 62.82 459.78 35.6 549.41 35.6 549.41 35.6"/><path class="cls-1" d="M673,100.52c21.46-1.79,43.61-20.21,43.61-48.87C716.59,18.17,690.3,0,661,0H572.44V159.18h39.8V102.64H629l47.71,56.54h48.63ZM658.31,69.11H612.24V35.63h45.49c10.9,0,18.82,8.54,18.82,16.74C676.55,62.94,666.27,69.11,658.31,69.11Z"/><polygon class="cls-1" points="732.85 0 732.85 159.15 773.47 159.15 773.47 0 732.85 0"/><path class="cls-1" d="M792.84,80.23c0,45.49,25.76,78.92,68.19,78.92h8.77l16.75-34.76H876.08c-25.34,0-42.93-13-42.93-43.77,0-25.95,15.38-42.93,37.13-42.93h45.58V0h-44C818.31,0,792.84,33.61,792.84,80.23Z"/><path class="cls-1" d="M1008.26,0H956.35L887.94,159.18h44.53l12.64-31.89h73.42l12.55,31.89h45.59Zm-49,92.72,22.44-55.67,22.38,55.67Z"/><polygon class="cls-1" points="1187.3 159.15 1236.25 159.15 1236.25 0 1196.46 0 1196.46 99.99 1131.88 0 1081.29 0 1081.29 159.15 1121.08 159.15 1121.08 56.54 1187.3 159.15"/><polygon class="cls-1" points="419.58 234.51 419.58 198.92 289.75 198.92 289.75 358.06 419.58 358.06 419.58 323.51 329.95 323.51 329.95 295.24 417.49 295.24 417.49 261.74 329.95 261.74 329.95 234.51 419.58 234.51 419.58 234.51"/><polygon class="cls-1" points="1055.74 234.51 1055.74 198.92 925.91 198.92 925.91 358.06 1055.74 358.06 1055.74 323.51 966.12 323.51 966.12 295.24 1053.23 295.24 1053.23 261.74 966.12 261.74 966.12 234.51 1055.74 234.51 1055.74 234.51"/><polygon class="cls-1" points="550.46 198.92 511.78 248.71 473.24 198.92 423.11 198.92 487.83 279.47 424.62 358.06 474.02 358.06 510.54 309.05 547.96 358.06 598.08 358.06 534.75 278.49 598.62 198.91 550.46 198.91 550.46 198.92"/><path class="cls-1" d="M690.68,198.94h-87.9V358.09h40.87V307.82h41.87c35.46,0,62.28-18.81,62.28-55.33C747.8,222.19,726.77,198.94,690.68,198.94Zm-3.09,72.65H643.65V234.93h44.09c11.43,0,19.63,7,19.63,18.33C707.37,263.88,699.22,271.59,687.59,271.59Z"/><path class="cls-1" d="M865.61,299.43a48.51,48.51,0,0,0,43.66-48.87c0-33.48-26.3-51.67-55.63-51.67H765.07V358h39.8V301.5h16.74L869.32,358H918ZM850.94,268H804.87V234.5h45.49c10.91,0,18.87,8.53,18.87,16.78C869.23,261.85,858.9,268,850.94,268Z"/><path class="cls-1" d="M1153.8,323.51h-79.63v34.55H1159c35,0,51.89-22.8,51.89-50.65,0-25.9-15.13-45.67-50-45.67h-37.7c-9.78,0-14.66-7.28-14.66-13.88,0-6.42,4-13.14,16.76-13.14h67l16.75-35.8h-77.48c-46.48,0-62.43,24.6-62.43,50.12,0,28.61,17.42,47.67,48.7,47.67h36c11.8,0,16.88,6.76,16.88,13.45C1170.68,317.14,1165.58,323.51,1153.8,323.51Z"/><path class="cls-1" d="M1353.52,288.24c-6.17-15.86-21.08-26.5-46.63-26.5H1269.2c-9.79,0-14.66-7.28-14.66-13.88,0-6.42,3.94-13.14,16.75-13.14h67l15.22-32.52,1.53-3.29h-77.48c-46.47,0-62.42,24.61-62.42,50.13,0,28.61,17.41,47.67,48.69,47.67h36c.21,0,.37,0,.57,0,11.37.23,16.32,6.84,16.32,13.41a12.62,12.62,0,0,1-1.89,6.66c-2.41,3.89-7.22,6.69-15,6.69H1220.2v34.55H1305c13.67,0,24.53-3.5,32.74-9.39a44.06,44.06,0,0,0,15.79-21.13,59.06,59.06,0,0,0,3.37-20.13A52.78,52.78,0,0,0,1353.52,288.24Z"/></g></g></svg>