<svg xmlns="http://www.w3.org/2000/svg" viewBox="0 0 830.13 340.85"><defs><style>.cls-1{fill:#f2f2f2;fill-rule:evenodd;}</style></defs><g id="Layer_2" data-name="Layer 2"><g id="Layer_1-2" data-name="Layer 1"><path class="cls-1" d="M151.82,43.94C161.33,32.12,167.75,16.23,166,0c-13.84.67-30.74,9.14-40.51,21C116.72,31.11,109,47.67,111,63.22c15.56,1.35,31.07-7.79,40.88-19.28Zm14,22.34c-22.56-1.38-41.77,12.8-52.55,12.8S86,67,68.15,67.29c-23.24.34-44.8,13.43-56.58,34.35-24.25,41.78-6.42,103.81,17.16,137.87,11.48,16.86,25.29,35.4,43.45,34.72,17.16-.67,23.95-11.11,44.84-11.11s26.93,11.11,45.13,10.82c18.84-.38,30.66-16.9,42.11-33.76a149.56,149.56,0,0,0,18.84-38.76c-.33-.37-36.37-14.17-36.7-55.61-.38-34.69,28.31-51.22,29.65-52.22C199.86,69.64,174.61,67,165.84,66.28Zm169.5,86.54h45c34.17,0,53.6-18.39,53.6-50.28s-19.43-50.13-53.45-50.13H335.34Zm55.5-133.54c49.09,0,83.26,33.84,83.26,83.07,0,49.43-34.88,83.41-84.45,83.41H335.3v86.39H296.06V19.28ZM603,203.44V189.26l-43.64,2.8c-24.55,1.57-37.3,10.67-37.3,26.63,0,15.41,13.28,25.41,34.13,25.41C582.79,244.1,603,227.09,603,203.44Zm-119.18,16.3c0-32.42,24.74-51,70.28-53.79l48.86-3v-14c0-20.51-13.46-31.7-37.48-31.7-19.77,0-34.17,10.14-37.16,25.73H492.9c1.08-32.75,31.89-56.58,73.63-56.58,44.83,0,74.11,23.5,74.11,59.94V272.15H604.35V241.82h-.86c-10.33,19.77-33.12,32.23-57.81,32.23C509.23,274.05,483.8,252.34,483.79,219.74ZM674,339.81V309.48c2.46.34,8.43.68,11.56.68,17.35,0,27.16-7.35,33.12-26.26l3.51-11.19-66.39-184h41L743.07,238h.9L790.22,88.7h39.91L761.31,282c-15.78,44.35-33.83,58.89-72,58.89-3,0-12.6-.37-15.25-1.08Z"/></g></g></svg>