<svg xmlns="http://www.w3.org/2000/svg" viewBox="0 0 620.46 129.56"><defs><style>.cls-1{fill:#f39200;}.cls-2{fill:#fff;}.cls-3{fill:#f2f2f2;}</style></defs><g id="Layer_2" data-name="Layer 2"><g id="Layer_1-2" data-name="Layer 1"><path class="cls-1" d="M127.61,80.45A64.76,64.76,0,1,1,80.43,1.94a64.76,64.76,0,0,1,47.18,78.51Z"/><path class="cls-2" d="M79.28,55.42c-2,8-14.37,3.95-18.38,2.95l3.54-14.19c4,1,16.93,2.87,14.84,11.24Zm-2.2,22.9c-2.19,8.83-17,4.06-21.87,2.86l3.9-15.65c4.82,1.21,20.27,3.59,18,12.79ZM93.32,55.55c1.29-8.62-5.27-13.25-14.25-16.34L82,27.53l-7.11-1.77L72.05,37.13c-1.87-.47-3.79-.91-5.7-1.34L69.2,24.34l-7.1-1.77L59.19,34.24c-1.55-.35-3.07-.7-4.54-1.06v0l-9.8-2.45L43,38.29s5.28,1.21,5.17,1.28c2.88.72,3.4,2.62,3.31,4.13L48.12,57c.2.06.46.13.74.24l-.75-.18L43.46,75.69a2.57,2.57,0,0,1-3.25,1.69c.07.1-5.17-1.29-5.17-1.29l-3.53,8.14,9.25,2.3c1.72.43,3.41.88,5.07,1.31L42.89,99.65,50,101.42,52.9,89.74c1.94.52,3.82,1,5.66,1.47l-2.9,11.62,7.11,1.78,2.94-11.79c12.12,2.29,21.23,1.37,25.07-9.59,3.09-8.83-.16-13.92-6.53-17.24,4.64-1.07,8.14-4.13,9.07-10.44Z"/><path class="cls-3" d="M168.52,109.39a22.21,22.21,0,0,0,10.81-2.79,28.53,28.53,0,0,0,8.79-7.46,37.8,37.8,0,0,0,5.81-10.58,36,36,0,0,0,2.14-12.31q0-7.86-2.63-12.29c-1.74-2.94-5-4.43-9.67-4.43a30.74,30.74,0,0,0-6,.82,14.93,14.93,0,0,0-6.65,3.45l-10.81,44.92c.65.12,1.22.22,1.72.33a12.1,12.1,0,0,0,1.54.24,16.08,16.08,0,0,0,2,.1h3Zm21.3-70.19A30.89,30.89,0,0,1,203.43,42,27.41,27.41,0,0,1,213,49.54a31.67,31.67,0,0,1,5.57,11.15,51.06,51.06,0,0,1,1.79,13.77,56,56,0,0,1-15.57,38.94,53.57,53.57,0,0,1-17.05,11.8,52.21,52.21,0,0,1-21.3,4.34c-1,0-2.73,0-5.18-.08a74.73,74.73,0,0,1-8.43-.72,100.45,100.45,0,0,1-10.09-2,50.58,50.58,0,0,1-10.09-3.61L161,4,186.38,0,176.23,42.32A39,39,0,0,1,182.78,40a29.28,29.28,0,0,1,7-.83Z"/><path class="cls-3" d="M258.48,30.51a15.07,15.07,0,0,1-9.18-3c-2.75-2-4.11-5.1-4.11-9.27a15.48,15.48,0,0,1,1.39-6.47,17.48,17.48,0,0,1,3.7-5.25A18.29,18.29,0,0,1,255.6,3a16.29,16.29,0,0,1,6.49-1.3,15,15,0,0,1,9.17,3q4.1,3,4.1,9.26a15.16,15.16,0,0,1-1.4,6.48,17,17,0,0,1-3.68,5.25A17.93,17.93,0,0,1,265,29.21a15.93,15.93,0,0,1-6.48,1.3Zm-11.81,96.74H222.41L242.9,41h24.43l-20.66,86.23Z"/><path class="cls-3" d="M288.59,19.54,314,15.6,307.77,41H335l-4.92,20H303l-7.21,30.16a33.92,33.92,0,0,0-1.14,7,12.82,12.82,0,0,0,.81,5.66,7.09,7.09,0,0,0,3.53,3.68,16.11,16.11,0,0,0,7.29,1.32,39.1,39.1,0,0,0,7.63-.74,53.88,53.88,0,0,0,7.45-2.05l1.81,18.7a89.12,89.12,0,0,1-10.66,3.11,61.49,61.49,0,0,1-13.61,1.3q-11.31,0-17.54-3.34a19.54,19.54,0,0,1-8.86-9.2,29.11,29.11,0,0,1-2.29-13.35,86.06,86.06,0,0,1,2.29-15.91l16.07-67.87Z"/><path class="cls-3" d="M333.92,92.83a60.63,60.63,0,0,1,3.6-21,51.81,51.81,0,0,1,10.34-17.23A48.4,48.4,0,0,1,364.18,43a52.06,52.06,0,0,1,21.38-4.27,56.69,56.69,0,0,1,13.2,1.4,53.65,53.65,0,0,1,10.58,3.69l-8.37,19c-2.18-.89-4.45-1.67-6.8-2.38a29.66,29.66,0,0,0-8.6-1.07q-12.15,0-19.27,8.36t-7.14,22.47q0,8.36,3.62,13.52t13.27,5.16a42.34,42.34,0,0,0,9.18-1,45.25,45.25,0,0,0,7.88-2.45l1.81,19.5a87.3,87.3,0,0,1-10.17,3.21,56.44,56.44,0,0,1-13.28,1.38q-10.17,0-17.21-3a32.69,32.69,0,0,1-11.64-7.95A29.93,29.93,0,0,1,336,106.92a47.93,47.93,0,0,1-2.06-14.09Z"/><path class="cls-3" d="M453.84,59.38a15.33,15.33,0,0,0-9.5,3.1,26.8,26.8,0,0,0-6.88,7.88,39,39,0,0,0-4.2,10.41,45.41,45.41,0,0,0-1.38,10.74q0,8.2,2.62,12.8c1.76,3,4.92,4.58,9.51,4.58a15.22,15.22,0,0,0,9.51-3.12,26.81,26.81,0,0,0,6.88-7.87,38.9,38.9,0,0,0,4.2-10.41A45.8,45.8,0,0,0,466,76.75q0-8.18-2.63-12.79t-9.51-4.58Zm-12.13,70.17a39.83,39.83,0,0,1-15.09-2.63,28,28,0,0,1-10.57-7.38,31.85,31.85,0,0,1-6.31-11.23A45.34,45.34,0,0,1,407.62,94a63.31,63.31,0,0,1,3.19-19.68,55.77,55.77,0,0,1,9.43-17.71,50.4,50.4,0,0,1,15.24-12.88,41.89,41.89,0,0,1,20.65-5,40,40,0,0,1,15,2.63,28.12,28.12,0,0,1,10.66,7.38A32.17,32.17,0,0,1,488.1,60a45.4,45.4,0,0,1,2.13,14.34A65.25,65.25,0,0,1,487.12,94a56.58,56.58,0,0,1-9.18,17.7,48.08,48.08,0,0,1-15.16,12.86,43.07,43.07,0,0,1-21.07,5Z"/><path class="cls-3" d="M528.47,30.51a15,15,0,0,1-9.18-3q-4.1-3-4.1-9.27a15.33,15.33,0,0,1,1.4-6.47,16.94,16.94,0,0,1,3.69-5.25A18.07,18.07,0,0,1,525.61,3a16.11,16.11,0,0,1,6.46-1.3,15.07,15.07,0,0,1,9.19,3c2.73,2,4.11,5.12,4.11,9.26A15.47,15.47,0,0,1,544,20.44a17,17,0,0,1-3.68,5.25A18.06,18.06,0,0,1,535,29.21a16,16,0,0,1-6.49,1.3Zm-11.79,96.74H492.39L512.89,41h24.44l-20.65,86.23Z"/><path class="cls-3" d="M554.81,45c1.84-.54,3.9-1.19,6.13-1.89s4.76-1.36,7.56-2a92.21,92.21,0,0,1,9.34-1.49A105.19,105.19,0,0,1,589.55,39Q608.75,39,616,50.2t2.55,30.49l-11.16,46.56H583l10.82-45.58q1-4.26,1.56-8.28a19.63,19.63,0,0,0-.08-7,8.45,8.45,0,0,0-3-4.92c-1.6-1.26-4-1.89-7.3-1.89a49,49,0,0,0-9.67,1l-15.9,66.72H535L554.81,45Z"/></g></g></svg>