<svg xmlns="http://www.w3.org/2000/svg" viewBox="0 0 1640.64 358.1"><defs><style>.cls-1{fill:#0667d0;fill-rule:evenodd;}</style></defs><g id="Layer_2" data-name="Layer 2"><g id="Layer_1-2" data-name="Layer 1"><path class="cls-1" d="M127.7,313a95,95,0,0,0,35.82-6.83c0,.41,22.83,35.82,23.24,35.95a135.1,135.1,0,0,1-65.76,16c-70.14.14-121-46.21-121-119.9,0-74.24,53.32-120.32,121-120.32,23.92,0,42.93,5.2,61.93,15.31l-21.87,36.92a95.93,95.93,0,0,0-35.55-6.56C84.08,163.52,52,189.9,52,238.17,52,283.83,83,313,127.7,313Zm176.77-195.1c68.91,0,118.81,48.81,118.81,120.32,0,71.09-49.9,119.9-118.94,119.9-68.36,0-118.26-48.81-118.26-119.9C186.08,166.66,236,117.85,304.47,117.85Zm0,44c-38.41,0-66.44,29.66-66.44,76.29,0,46.21,28,75.88,66.44,75.88,39.38,0,67-29.67,67-75.88C371.47,191.54,343.85,161.88,304.47,161.88ZM456,352.87V123.05h51.41V352.74H456ZM449.12,52.36a32.27,32.27,0,0,1,64.4,0,32.14,32.14,0,1,1-64.26,0Zm103.09,85.18a308.11,308.11,0,0,1,105.27-19.69c58.79,0,96,22.29,96,87.09V352.87H702.74V209.73c0-33.22-20.65-45.12-49.22-45.12-18.18,0-36.37,2.46-49.9,6.7V352.74H552.35V137.54ZM796.53,0h51.41V129.2c10.93-5.74,32.12-11.35,52.36-11.35,66.44,0,116.21,42.39,116.21,116.21,0,74.24-49.22,124-134.26,124a258.76,258.76,0,0,1-85.72-15Zm51.41,309.26c9.84,3.14,22.83,4.79,35.82,4.79,47.16,0,80.93-26,80.93-78.89,0-44.71-31.72-71.1-70.54-71.1-20.24,0-35.82,5.2-46.21,10.94Zm317.18-110.47c0-24.88-18.86-36.37-44.29-36.37-26.39,0-47.17,7.8-66.31,18.73v-44.7a153.2,153.2,0,0,1,74.65-18.6c50.31,0,86.13,20.78,86.13,78.34v152c-21.87,5.74-52.91,9.29-78.89,9.29-59.61,0-103.22-18-103.22-70,0-46.76,39.92-69.59,106.37-69.59H1165V198.79Zm0,53.32h-21.87c-35.82,0-59.2,10.53-59.2,33.91,0,23.79,21.88,33.08,52.91,33.08a192.22,192.22,0,0,0,28-2.46V252.25Zm87.51,38.56a120.53,120.53,0,0,0,70.13,26c22.83,0,37.87-7.79,37.87-26,0-18.73-13.53-25.43-43.06-33.23-47.85-10.93-68-30.08-68-70.13,0-46.63,35.27-69.46,82-69.46,26,0,46.62,5.61,65.9,17.64v47.17a106.4,106.4,0,0,0-64.4-23.24c-22.28,0-34.18,10.93-34.18,26s9.71,22.7,36.23,30.08c52.5,11.35,75.2,31,75.2,72.46,0,48.4-36.78,70.14-86.54,70.14a134.89,134.89,0,0,1-71.1-18.6v-48.8Zm228.18-41v1c3.15,41,38.28,63.44,74.24,63.44,31.58,0,54.41-7.39,77.25-22.43v45.12c-20.79,14.63-51.41,21.33-80.94,21.33-71.64,0-120.32-45.67-120.32-118.26,0-73.15,47.72-122,111-122,67,0,98.58,43.07,98.58,105.82v26H1480.81Zm111.56-33.22c-1.09-35.82-18.73-55.51-51.95-55.51-29.53,0-51.27,20.78-58.11,55.51Z"/></g></g></svg>