<svg xmlns="http://www.w3.org/2000/svg" viewBox="0 0 961.61 189.52"><defs><style>.cls-1{fill:#343434;}.cls-2{fill:#8c8c8c;}.cls-3{fill:#3c3c3b;}.cls-4{fill:#141414;}.cls-5{fill:#393939;}.cls-6{fill:#f2f2f2;}</style></defs><g id="Layer_2" data-name="Layer 2"><g id="Layer_1-2" data-name="Layer 1"><polygon class="cls-1" points="58.17 0 56.9 4.32 56.9 129.63 58.17 130.9 116.34 96.52 58.17 0"/><polygon class="cls-2" points="58.17 0 0 96.52 58.17 130.9 58.17 70.08 58.17 0"/><polygon class="cls-3" points="58.17 141.92 57.45 142.79 57.45 187.43 58.17 189.52 116.38 107.55 58.17 141.92"/><polygon class="cls-2" points="58.17 189.52 58.17 141.92 0 107.55 58.17 189.52"/><polygon class="cls-4" points="58.17 130.9 116.34 96.52 58.17 70.08 58.17 130.9"/><polygon class="cls-5" points="0 96.52 58.17 130.9 58.17 70.08 0 96.52"/><path class="cls-6" d="M172.19,148.14V35.66h60.65V50.71H188.61V83.84h44.23v15H188.61v34.2h44.23v15Z"/><path class="cls-6" d="M275.39,148.14V50.71H253.81V35.66h59.58V50.71H291.81v97.43Z"/><path class="cls-6" d="M400.17,148.14V99.19H353.82v48.95H337.4V35.66h16.42V84.15h46.35V35.66h16.42V148.14Z"/><path class="cls-6" d="M449.11,148.14V35.66h60.65V50.71H465.53V83.84h44.23v15H465.53v34.2h44.23v15Z"/><path class="cls-6" d="M593.35,148.14,556.26,96H556v52.14H539.54V35.66h36c27.06,0,39.07,14.29,39.07,37.39,0,21.43-16.42,32.68-32.23,33.14l31.47,41.95ZM568,93.72c19.16,0,30.25-7.44,30.25-22,0-12.92-10.33-21-24.92-21H556v43Z"/><path class="cls-6" d="M641.22,148.14V35.66h60.65V50.71H657.64V83.84h44.23v15H657.64v34.2h44.23v15Z"/><path class="cls-6" d="M791.84,35.66h16.42v76.91c0,23.56-16.57,37.69-37.7,37.69S732.87,136,732.87,112.57V35.66h16.42v75.69c0,14,7.9,23.87,21.27,23.87s21.28-10,21.28-23.87Z"/><path class="cls-6" d="M945.2,148.14v-95h-.46l-37.84,95H897l-38-95h-.31v95H842.3V35.66h25.84l33.74,86.18,33.9-86.18h25.83V148.14Z"/></g></g></svg>