<svg xmlns="http://www.w3.org/2000/svg" viewBox="0 0 964.61 383.38"><defs><style>.cls-1{fill:#f2f2f2;}.cls-2{fill:#4285f4;}.cls-3{fill:#34a853;}.cls-4{fill:#fbbc04;}.cls-5{fill:#ea4335;}</style></defs><g id="Layer_2" data-name="Layer 2"><g id="Layer_1-2" data-name="Layer 1"><path class="cls-1" d="M455.94,186.9V299H419.77V21.76h94a89.73,89.73,0,0,1,61.48,24.11c16.87,14.46,25.31,36.16,25.31,59.06s-8.44,43.4-25.31,59.07-37.37,24.1-61.48,24.1l-57.85-1.2Zm0-131.39v96.43h60.27c13.25,0,26.51-4.82,34.95-14.46a46.23,46.23,0,0,0,1.21-66.3L551.16,70c-9.64-9.65-21.7-15.67-34.95-14.47Z"/><path class="cls-1" d="M683.75,103.73c26.52,0,47,7.23,62.68,21.69s22.91,33.76,22.91,57.86V299H735.59V272.48h-1.21c-14.46,21.7-35,32.55-59.06,32.55-20.5,0-38.58-6-53-18.08-13.26-12.06-21.7-28.93-21.7-47q0-28.93,21.7-47c14.46-12.06,35-16.88,59.06-16.88,21.7,0,38.58,3.62,51.83,12v-8.43c0-12.06-4.82-24.11-14.46-31.34a52.51,52.51,0,0,0-35-13.26q-30.74,0-47,25.31L605.4,141.09C624.69,115.78,650,103.73,683.75,103.73ZM638,241.14A27.43,27.43,0,0,0,650,264c8.44,6,18.08,9.65,27.73,9.65a56.69,56.69,0,0,0,39.77-16.88c12.06-10.85,18.09-24.11,18.09-38.57-10.85-8.44-26.52-13.26-47-13.26q-21.71,0-36.17,10.85Q638,224.88,638,241.14Z"/><path class="cls-1" d="M964.61,109.75,845.28,383.38H809.11l44.6-95.23L775.36,111h38.57l56.66,136.21h1.2L927.24,111h37.37Z"/><path class="cls-2" d="M312.5,162.79c0-10.85-1.21-21.7-2.42-32.54H159.41v61.47H245c-3.61,19.29-14.46,37.37-31.34,48.22v39.77h51.84C295.62,252,312.5,211,312.5,162.79Z"/><path class="cls-3" d="M159.41,318.29c43.4,0,79.56-14.47,106.08-38.58l-51.84-39.77c-14.46,9.64-32.54,15.67-54.24,15.67-41,0-77.14-27.73-89.2-66.3h-53v41C44.9,284.54,99.14,318.29,159.41,318.29Z"/><path class="cls-4" d="M70.21,189.31c-7.23-19.29-7.23-41,0-61.47v-41h-53c-22.91,44.6-22.91,97.64,0,143.44Z"/><path class="cls-5" d="M159.41,62.74a89.75,89.75,0,0,1,61.48,24.11h0l45.8-45.8c-28.93-26.52-67.5-42.19-106.07-41-60.27,0-115.72,33.76-142.24,88l53,41C82.27,90.47,118.43,62.74,159.41,62.74Z"/></g></g></svg>