<svg xmlns="http://www.w3.org/2000/svg" viewBox="0 0 771.51 160.1"><defs><style>.cls-1{fill:#ebebeb;}.cls-2{fill:#e74011;}.cls-3{fill:#f68b00;}.cls-4{fill:#056aab;}.cls-5{fill:#26a2dc;}</style></defs><g id="Layer_2" data-name="Layer 2"><g id="Layer_1-2" data-name="Layer 1"><path class="cls-1" d="M327.43,88.85H364.7a25.1,25.1,0,1,0,0-50.2H320.34a17.71,17.71,0,0,0-17.71,17.72h60.78A7.5,7.5,0,0,1,371,63.56a7.37,7.37,0,0,1-7.17,7.57h-39a23.61,23.61,0,0,0-23.61,23.62v26.57h66.25l9.4-17.71H319.76V96.51A7.66,7.66,0,0,1,327.43,88.85Z"/><path class="cls-1" d="M239.46,56.41l47.86,0V38.66l-49,0a41.3,41.3,0,0,0,0,82.6h0l49,0V71.14H234.18V88.85h34.61v14.77l-29.33-.05a23.58,23.58,0,0,1,0-47.16Z"/><path class="cls-1" d="M450.47,48.19a20.38,20.38,0,0,0-5.69-6.88,15.83,15.83,0,0,0-9.65-3.13,15.08,15.08,0,0,0-9.38,3.13,20.38,20.38,0,0,0-5.69,6.88c-15.48,29.49-38.67,73.14-38.67,73.14h21.16l32.58-62.42,15.32,29.33H426.87l8.31,15.88h23.55l9,17.21h21.15Z"/><polygon class="cls-1" points="748.91 38.71 723.46 74.59 698.02 38.71 675.42 38.71 713.96 91.82 713.96 121.32 732.97 121.32 732.97 91.82 771.51 38.71 748.91 38.71"/><path class="cls-1" d="M575.66,38.66H519.23V56.38h55.61a7.49,7.49,0,0,1,7.54,7.18,7.37,7.37,0,0,1-7.17,7.57h-32.9A23.61,23.61,0,0,0,518.7,94.75v26.57h18.53V96.51a7.66,7.66,0,0,1,7.67-7.67h30.76a25.09,25.09,0,1,0,0-50.18Z"/><path class="cls-1" d="M658.92,48.19a20.26,20.26,0,0,0-5.69-6.88,15.78,15.78,0,0,0-9.64-3.13,15.11,15.11,0,0,0-9.39,3.13,20.23,20.23,0,0,0-5.68,6.88c-15.49,29.49-38.67,73.14-38.67,73.14H611l32.58-62.42L658.9,88.24H635.33l8.31,15.88h23.55l9,17.21h21.16S674.4,77.68,658.92,48.19Z"/><polygon class="cls-2" points="80.05 112.87 47.23 80.05 80.05 160.1 160.1 80.05 80.05 112.87"/><polygon class="cls-3" points="80.05 47.23 0 80.05 80.05 160.1 47.23 80.05 80.05 47.23"/><polygon class="cls-4" points="80.05 0 0 80.05 80.05 47.23 112.87 80.05 80.05 0"/><polygon class="cls-5" points="160.1 80.05 80.05 0 112.87 80.05 80.05 112.87 160.1 80.05"/></g></g></svg>