<svg xmlns="http://www.w3.org/2000/svg" viewBox="0 0 838.54 724.36"><defs><style>.cls-1{fill:#fff;}.cls-2{fill:#d50172;}</style></defs><g id="Layer_2" data-name="Layer 2"><g id="Layer_1-2" data-name="Layer 1"><path class="cls-1" d="M804.48,361.33c0,216.81-131,329-371.72,329H34.07V34.06H432.76C662.52,34.06,804.48,138.53,804.48,361.33Z"/><path d="M432.76,0H0V724.36H432.76c261.68,0,405.78-128.92,405.78-363C838.54,226.41,785.82,0,432.76,0ZM34.07,690.28V34.06H432.76c229.76,0,371.72,104.47,371.72,327.27,0,216.81-131,329-371.72,329Z"/><path id="Fill-7" class="cls-2" d="M280,259.59v74.05h22.73c15.75,0,30.29-4.55,30.29-37.61,0-32.3-16.18-36.44-30.29-36.44Zm379.14-36.83h36.76V333.64h54.48C735.48,132.45,577.21,89,433.4,89H280.07V222.84h22.7c41.38,0,67.08,28.06,67.08,73.19,0,46.57-25.09,74.37-67.08,74.37h-22.7V638.23H433.4c233.82,0,315.19-108.59,318.06-267.83H659.18ZM556.74,305.14h26.6l-12.16-41.73H569l-12.23,41.73Zm-57.37,65.3,44.52-147.68H596.2l44.5,147.68H602.43l-8.34-28.57H546l-8.37,28.57Zm-17.66-36.8V370.4H390.76V222.82h88v36.75H427.53v17.1H476v36.74H427.53v20.23Z"/><path id="Fill-6" d="M231.93,296.55a79.33,79.33,0,1,1-79.32-79.32,79.32,79.32,0,0,1,79.32,79.32M89,638.11H216.62V410.9H89Z"/></g></g></svg>