<svg xmlns="http://www.w3.org/2000/svg" viewBox="0 0 555.83 332.72"><defs><style>.cls-1{fill:#e9b040;}.cls-1,.cls-2,.cls-3,.cls-4{fill-rule:evenodd;}.cls-2{fill:#cc2131;}.cls-3{fill:#fff;}.cls-4{fill:#1b3771;}</style></defs><g id="Layer_2" data-name="Layer 2"><g id="Layer_1-2" data-name="Layer 1"><path class="cls-1" d="M277.92,289.65a166.27,166.27,0,0,0,277.91-123.3C555.83,74.7,481.46,0,389.47,0A165.6,165.6,0,0,0,277.92,43.06c-33.6,30.65-54.8,74.36-54.8,123.29a165.73,165.73,0,0,0,54.8,123.3Z"/><path class="cls-2" d="M331.73,148.74a166.66,166.66,0,0,0-2.93-17.61H227a176,176,0,0,1,4.9-17.61h92q-3-9-6.85-17.62H238.77q4.51-9,9.79-17.61h58.71a109.66,109.66,0,0,0-12.72-17.61H261.28a169.06,169.06,0,0,1,16.63-17.62A165,165,0,0,0,166.36,0C74.37,0,0,74.7,0,166.36a166.27,166.27,0,0,0,277.91,123.3,213.69,213.69,0,0,0,17-17.61h-33.6a174.54,174.54,0,0,1-12.72-17.61h58.72a152.23,152.23,0,0,0,9.79-17.62H238.77a142.57,142.57,0,0,1-6.85-17.61h92a179.62,179.62,0,0,0,4.89-17.62A166.22,166.22,0,0,0,331.73,184a158.49,158.49,0,0,0,0-35.24Z"/><path class="cls-3" d="M533.65,204.85a5.22,5.22,0,0,1,5.54-5.22,5.15,5.15,0,0,1,5.22,5.22,5.43,5.43,0,0,1-5.22,5.55,5.5,5.5,0,0,1-5.54-5.45Zm5.54,4.24a4.28,4.28,0,0,0,3.92-4.24,4,4,0,0,0-3.92-3.91,4,4,0,0,0-4.24,3.91A4.32,4.32,0,0,0,539.19,209.09Zm-1-1.63h-1v-4.89h2a2,2,0,0,1,1.31.32c.32.33.65.65.65,1,0,.65-.33,1.31-1,1.31l1,2.28h-1.31l-.65-2h-1v2Zm0-2.93h1.31c.32,0,.32-.33.32-.66a.31.31,0,0,0-.32-.32h-1.31v1Z"/><path class="cls-4" d="M221.49,214.31a46.1,46.1,0,0,1-13.7,2.28c-8.49,0-13.71-5.22-13.71-15a44,44,0,0,1,.66-6.2l1-6.52,1-5.55,7.83-47h17.29l-2,10.43h10.77L228,164.07H217.25l-4.9,28.06c0,1-.32,2-.32,2.61,0,3.59,1.95,5.22,6.19,5.22a28.43,28.43,0,0,0,5.55-.66l-2.28,15Zm55.77-.66a61.13,61.13,0,0,1-18.59,2.94c-19.25,0-30.66-10.44-30.66-30.66,0-23.48,13.37-41.1,31.64-41.1,14.68,0,24.13,9.79,24.13,25.12a74.26,74.26,0,0,1-2.27,17H245.62v2c0,8.15,5.22,12.06,15.66,12.06a44.22,44.22,0,0,0,18.92-4.24l-2.94,17ZM266.5,172.88v-3.26c0-5.54-3.26-8.8-8.48-8.8-5.87,0-9.79,4.24-11.42,12.06Zm-183,42.41H65.57L76,150.38,52.85,215.29H40.45l-1.3-64.59-11.1,64.59H10.77l14-84.49H50.56l1,52.19L68.83,130.8H97.54Zm43.38-30.67c-2,0-2.28-.32-3.59-.32-10.11,0-15.33,3.91-15.33,10.44,0,4.56,2.61,7.18,6.52,7.18,8.81,0,12.07-7.18,12.4-17.3Zm14.35,30.67H125.59l.32-7.18c-3.91,5.55-9.13,8.48-18.92,8.48-8.8,0-16-7.83-16-18.92a35.8,35.8,0,0,1,1.3-8.8c2.94-10.77,13.7-17.29,30-17.62a67.5,67.5,0,0,1,7.83.33,13.7,13.7,0,0,0,.65-4.57c0-4.56-3.59-5.87-12.07-5.87a69.51,69.51,0,0,0-15,2l-2.28,1h-1.31l2.61-15.33c8.48-2.61,14.35-3.59,20.88-3.59,15.65,0,23.81,6.85,23.81,20.22a57.38,57.38,0,0,1-1,13.37l-3.59,24.47-.65,4.24-.65,3.58v2.29l-.33,2ZM364,147.44c4.89,0,9.46,1.3,16,4.57l2.94-18.6c-1.63-.65-2-.65-4.24-1.63l-7.51-1.63a29.44,29.44,0,0,0-8.15-1c-8.81,0-14,0-19.57,3.58a43.46,43.46,0,0,0-10.76,8.81l-2-.65L312.17,154l1-7.18H293.9l-10.76,68.5h17.94l6.53-36.85a63,63,0,0,1,3.91-6.86c3.26-4.24,6.19-4.24,9.78-4.24h1.31c-.33,3.92-.66,8.49-.66,13,0,22.51,12.73,36.54,32.3,36.54,4.89,0,9.13-.66,15.65-2.61l3.26-19.25c-5.87,2.94-10.76,4.24-15.33,4.24-10.44,0-16.64-7.5-16.64-20.55,0-18.27,9.14-31.32,22.84-31.32ZM516.35,130.8l-3.91,24.14c-4.24-6.52-9.46-9.46-16.31-9.46-9.46,0-18.26,5.22-23.81,15.33L460.9,154l1-7.17H442.63l-11.09,68.5h18.27l5.87-36.86s4.57-5.22,5.87-6.85c2.61-3.26,5.55-4.24,7.83-4.24a64,64,0,0,0-3.26,20.23c0,17.28,9.13,28.7,22.18,28.7,6.52,0,11.74-2.28,16.64-7.83l-1,6.85h17.28L535,130.81h-18.6ZM494.5,199c-6.19,0-9.13-4.24-9.13-13.38,0-13.37,5.54-23.15,14-23.15,6.2,0,9.47,4.89,9.47,13.7,0,13.37-5.88,22.83-14.36,22.83Zm-83.18-14.36c-1.95,0-2.27-.32-3.58-.32-10.11,0-15.33,3.91-15.33,10.44,0,4.56,2.61,7.18,6.52,7.18,8.81,0,12.07-7.18,12.39-17.3Zm14.35,30.67H410l.32-7.18c-3.91,5.55-9.13,8.48-18.92,8.48-8.81,0-16.64-7.5-16.64-18.92.33-16.31,12.4-26.42,32-26.42a67.5,67.5,0,0,1,7.83.33,13.7,13.7,0,0,0,.65-4.57c0-4.56-3.59-5.87-12.07-5.87a66.82,66.82,0,0,0-15,2l-2.61,1h-1l2.61-15.33c8.48-2.61,14.35-3.59,20.87-3.59,15.66,0,23.81,6.85,23.81,20.22a56.81,56.81,0,0,1-1,13.37l-3.58,24.47-.65,4.24L426,211l-.34,2.29ZM178.75,161.47a115.15,115.15,0,0,1,13.7,1l2.61-16a156.11,156.11,0,0,0-16.3-1.3c-19.9,0-26.75,10.76-26.75,23.48,0,8.16,3.91,14.35,13.37,18.59,7.5,3.59,8.81,4.25,8.81,7.18,0,4.24-3.92,6.85-11.09,6.85a58.42,58.42,0,0,1-16-2.61l-2,15.66h.33l3.26.65a15,15,0,0,0,4.56.65,69,69,0,0,0,10.44.66c19.9,0,28.38-7.5,28.38-22.84,0-9.45-4.57-15-13.7-18.91-7.5-3.59-8.48-3.92-8.48-7.18s3.26-5.87,8.8-5.87Z"/><path class="cls-3" d="M387.84,128.2l-2.94,18.26c-6.53-3.26-11.09-4.56-16-4.56-13.7,0-23.16,13-23.16,31.64,0,12.72,6.53,20.54,17,20.54,4.57,0,9.46-1.29,15.33-4.24l-3.26,19.25a60.75,60.75,0,0,1-16,2.29c-19.25,0-31.31-13.71-31.31-36.21,0-30.34,16.63-51.21,40.44-51.21a55.82,55.82,0,0,1,8.16.65l7.5,2c2.28,1,2.61,1,4.24,1.63Zm-57.73,12.72a4.13,4.13,0,0,0-2-.33c-5.87,0-9.14,2.94-14.68,11.09l1.63-10.44H298.47L287.7,210.07h17.95c6.52-42.08,8.15-49.26,17-49.26h1.3c1.63-8.15,3.59-14.35,6.85-19.9h-.65ZM226.05,209.09A39.29,39.29,0,0,1,213,211.37c-9.13,0-14.35-5.22-14.35-15a45.44,45.44,0,0,1,.65-6.2l1-6.85,1-5.22,7.83-47H227l-2,10.11h9.14l-2.61,17h-9.13l-4.9,28.38c0,1.31-.32,2.29-.32,2.94,0,3.59,1.95,5.22,6.19,5.22a17.53,17.53,0,0,0,4.9-.66l-2.29,15Zm-69.48-46c0,8.48,4.24,14.67,13.7,18.91,7.5,3.59,8.48,4.57,8.48,7.83,0,4.24-3.26,6.2-10.44,6.2a49.09,49.09,0,0,1-16-2.93l-2.61,16h1l3.26.65a15.36,15.36,0,0,0,4.57.66c4.24.32,7.83.65,10.11.65,18.92,0,27.73-7.18,27.73-22.84,0-9.45-3.59-15-12.72-19.24-7.51-3.26-8.49-4.24-8.49-7.18q0-5.86,8.81-5.87A102.35,102.35,0,0,1,197,157.23l2.61-16a138.2,138.2,0,0,0-16-1.3c-20.23,0-27.08,10.44-27.08,23.16Zm369.25,47H508.53l1-6.85c-4.9,5.22-10.12,7.5-16.64,7.5-13.05,0-21.85-11.09-21.85-28.38,0-22.83,13.37-42.08,29.35-42.08,7.18,0,12.4,2.94,17.29,9.46l3.91-24.14h17.95l-13.7,84.49Zm-26.75-16.31c8.48,0,14.35-9.46,14.35-23.16,0-8.48-3.26-13.37-9.46-13.37-8.15,0-14,9.45-14,23.15C489.93,189.19,492.87,193.76,499.07,193.76Zm-217.9,14.68a60,60,0,0,1-18.59,2.93c-20.22,0-30.66-10.76-30.66-30.66,0-23.81,13.38-41.1,31.64-41.1,14.68,0,24.14,9.79,24.14,25.12,0,4.89-.65,9.79-1.95,17H249.87a4.79,4.79,0,0,0-.33,2c0,7.83,5.22,12.07,16,12.07a43.91,43.91,0,0,0,18.6-4.25Zm-10.1-40.78v-3.59c0-5.54-2.94-8.8-8.48-8.8s-9.79,4.56-11.42,12.39Zm-183,42.41H70.14l10.43-64.91L57.41,210.07H45l-1.31-64.59L32.62,210.07H16l14-84.49H55.78l1,52.19,17.29-52.19H102.1l-14,84.49Zm44.68-30.66a21.39,21.39,0,0,0-4.24-.33c-10.11,0-15.33,3.59-15.33,10.44,0,4.24,2.61,7.18,6.52,7.18,7.51,0,12.73-7.18,13-17.29Zm13.05,30.66h-15l.33-7.18c-4.56,5.55-10.44,8.15-18.92,8.15-9.78,0-16.31-7.5-16.31-18.59,0-16.63,11.42-26.42,31.64-26.42a57.22,57.22,0,0,1,7.18.33,11.22,11.22,0,0,0,.65-4.24c0-4.57-2.94-6.2-11.42-6.2-5.22,0-11.09.65-15,2l-2.61.65-1.63.32,2.61-15.33c9.13-2.61,15-3.59,21.52-3.59,15.66,0,23.82,6.85,23.82,19.9,0,3.59-.33,6.2-1.64,13.7L147.44,198l-.66,4.24-.32,3.58-.33,2.28-.32,2ZM417.2,179.41a21.44,21.44,0,0,0-4.24-.33c-10.12,0-15.34,3.59-15.34,10.44,0,4.24,2.61,7.18,6.53,7.18,7.17,0,12.72-7.18,13.05-17.29Zm13,30.66h-15l.33-7.18C411,208.44,404.81,211,396.64,211c-9.78,0-16.63-7.5-16.63-18.59,0-16.63,11.75-26.42,32-26.42a57.22,57.22,0,0,1,7.18.33,11.22,11.22,0,0,0,.65-4.24c0-4.57-2.94-6.2-11.42-6.2-5.22,0-11.09.65-15,2l-2.61.65-1.63.32,2.61-15.33c9.13-2.61,15-3.59,21.53-3.59,15.65,0,23.81,6.85,23.81,19.9,0,3.59-.33,6.2-1.63,13.7L431.87,198l-.65,4.24-.66,3.58-.32,2.28v2Zm48.28-69.15a2.43,2.43,0,0,0-1.63-.33c-5.87,0-9.46,2.94-15,11.09l1.63-10.44h-16.3l-11.1,68.83h18.27c6.2-42.08,8.16-49.26,16.64-49.26h1.3a71.16,71.16,0,0,1,6.85-19.9h-.65Z"/></g></g></svg>