<svg xmlns="http://www.w3.org/2000/svg" viewBox="0 0 612.76 105.89"><defs><style>.cls-1{fill:#83ba3b;}</style></defs><g id="Layer_2" data-name="Layer 2"><g id="Layer_1-2" data-name="Layer 1"><path class="cls-1" d="M601.57,8.05c-7.81-5.35-19.63-8-35.12-8H525.88L510.8,81.88H457.65l3.42-18.58h32l3.8-20.86-32,.05L468.3,24h33l4.39-24h-67L424.38,77.67H399.81L414.22,0h-35L364.89,77.67H341L355.38,0h-35l-15.1,81.88H251.76l3.39-18.57h32.14l3.8-20.75-32.11,0L262.38,24h33.35l4.36-24H91.4L79.52,64.88,55.87,0H19.55L0,105.89H34.69L46.52,39.22l22.95,66.67H193.79L208.9,24h19.44l-15.11,81.9H540.32l9.49-51.7,15.34,51.7h34.7L584,63.64l3.63-.78c8-1.72,14.26-5.4,18.61-10.93s6.56-12.75,6.56-21.35c0-10-3.66-17.39-11.2-22.54Zm-438,73.83H110.51l3.43-18.58h33.3L151,42.38H118L121.21,24h53L163.59,81.88ZM573,46.21c-3.49,2.44-8.55,3.63-15.47,3.63h-6.86l5.26-28.41H561c5.75,0,9.94.92,12.83,2.79,2.25,1.48,4.94,4.39,4.94,9.9,0,6.67-3.13,10.25-5.76,12.09Z"/></g></g></svg>