<svg xmlns="http://www.w3.org/2000/svg" viewBox="0 0 613.85 155.7"><defs><style>.cls-1{fill:#003087;}.cls-2{fill:#009cde;}.cls-3{fill:#012169;}</style></defs><g id="Layer_2" data-name="Layer 2"><g id="Layer_1-2" data-name="Layer 1"><path class="cls-1" d="M112.34,11.74C105.13,3.52,92.1,0,75.43,0H27a6.94,6.94,0,0,0-6.85,5.84L.06,133.63a4.15,4.15,0,0,0,3.45,4.75,4.74,4.74,0,0,0,.65.05H34l7.5-47.59-.23,1.49a6.91,6.91,0,0,1,6.82-5.84h14.2c27.88,0,49.72-11.33,56.1-44.09.19-1,.35-1.92.49-2.84,1.9-12.11,0-20.35-6.56-27.82"/><path class="cls-2" d="M478,72.55c-1.82,12-11,12-19.84,12h-5l3.53-22.39a2.79,2.79,0,0,1,2.75-2.35h2.31c6,0,11.73,0,14.66,3.44,1.76,2.05,2.29,5.1,1.62,9.31m-3.85-31.29H440.78a4.66,4.66,0,0,0-4.59,3.92L422.7,130.83A2.79,2.79,0,0,0,425,134l.42,0h17.14a3.25,3.25,0,0,0,3.21-2.74L449.63,107a4.64,4.64,0,0,1,4.58-3.92h10.57c22,0,34.7-10.64,38-31.75,1.49-9.22.06-16.48-4.26-21.55-4.75-5.59-13.17-8.54-24.35-8.54"/><path class="cls-1" d="M239.79,72.55c-1.83,12-11,12-19.84,12h-5l3.54-22.39a2.77,2.77,0,0,1,2.74-2.35h2.32c6,0,11.72,0,14.66,3.44,1.75,2.05,2.28,5.1,1.62,9.31m-3.85-31.29H202.53a4.66,4.66,0,0,0-4.59,3.92l-13.5,85.65a2.78,2.78,0,0,0,2.32,3.18,2.09,2.09,0,0,0,.43,0h15.95a4.64,4.64,0,0,0,4.59-3.92L211.37,107A4.65,4.65,0,0,1,216,103.1h10.56c22,0,34.71-10.64,38-31.75,1.49-9.22.06-16.48-4.26-21.55-4.75-5.59-13.17-8.54-24.35-8.54m77.55,62a17.83,17.83,0,0,1-18.06,15.27c-4.63,0-8.35-1.49-10.74-4.31s-3.25-6.8-2.5-11.24a17.89,17.89,0,0,1,17.92-15.39c4.54,0,8.23,1.51,10.66,4.36s3.42,6.89,2.72,11.31m22.29-31.14h-16A2.78,2.78,0,0,0,317,74.52l-.7,4.47-1.12-1.62c-3.46-5-11.18-6.71-18.89-6.71-17.67,0-32.77,13.39-35.71,32.17-1.53,9.38.64,18.33,6,24.58,4.88,5.74,11.84,8.13,20.14,8.13a30.63,30.63,0,0,0,22.15-9.15l-.72,4.45a2.79,2.79,0,0,0,2.32,3.18,3.15,3.15,0,0,0,.44,0h14.4a4.62,4.62,0,0,0,4.58-3.92l8.65-54.75a2.78,2.78,0,0,0-2.32-3.18,3.13,3.13,0,0,0-.43,0"/><path class="cls-2" d="M551.74,103.3a17.83,17.83,0,0,1-18,15.27c-4.64,0-8.36-1.49-10.75-4.31s-3.25-6.8-2.5-11.24a17.89,17.89,0,0,1,17.92-15.39c4.55,0,8.23,1.51,10.67,4.36s3.41,6.89,2.71,11.31M574,72.16H558a2.79,2.79,0,0,0-2.76,2.36l-.7,4.47-1.12-1.62c-3.46-5-11.18-6.71-18.89-6.71-17.67,0-32.76,13.39-35.7,32.17-1.53,9.38.64,18.33,6,24.58,4.88,5.74,11.84,8.13,20.14,8.13a30.63,30.63,0,0,0,22.15-9.15l-.72,4.45a2.79,2.79,0,0,0,2.3,3.18l.45,0h14.39a4.65,4.65,0,0,0,4.6-3.92l8.64-54.75a2.78,2.78,0,0,0-2.32-3.18,3.13,3.13,0,0,0-.43,0"/><path class="cls-1" d="M421,72.16H404.89a4.63,4.63,0,0,0-3.83,2l-22.18,32.66-9.4-31.38A4.65,4.65,0,0,0,365,72.16h-15.8a2.79,2.79,0,0,0-2.64,3.69l17.7,52-16.65,23.5a2.79,2.79,0,0,0,2.27,4.39H366a4.66,4.66,0,0,0,3.81-2l53.47-77.17A2.79,2.79,0,0,0,421,72.16"/><path class="cls-2" d="M592.88,43.62l-13.71,87.22a2.78,2.78,0,0,0,2.32,3.18,3.11,3.11,0,0,0,.43,0h13.79a4.63,4.63,0,0,0,4.58-3.92l13.52-85.65a2.77,2.77,0,0,0-2.31-3.18,2.12,2.12,0,0,0-.44,0H595.63a2.78,2.78,0,0,0-2.75,2.35"/><path class="cls-1" d="M112.34,11.74C105.13,3.52,92.1,0,75.43,0H27a6.94,6.94,0,0,0-6.85,5.84L.06,133.63a4.15,4.15,0,0,0,3.45,4.75,4.74,4.74,0,0,0,.65.05H34l7.5-47.59-.23,1.49a6.91,6.91,0,0,1,6.82-5.84h14.2c27.88,0,49.72-11.33,56.1-44.09.19-1,.35-1.92.49-2.84,1.9-12.11,0-20.35-6.56-27.82"/><path class="cls-1" d="M49.59,39.72a6.07,6.07,0,0,1,6-5.11H93.51a80,80,0,0,1,12.51.9,52.4,52.4,0,0,1,6.2,1.39,33.84,33.84,0,0,1,6.68,2.66c1.91-12.11,0-20.35-6.56-27.82C105.13,3.53,92.1,0,75.43,0H27A6.93,6.93,0,0,0,20.2,5.85L.05,133.62a4.15,4.15,0,0,0,3.45,4.75,3.56,3.56,0,0,0,.65,0H34l7.5-47.59Z"/><path class="cls-2" d="M118.91,39.56c-.15.95-.32,1.89-.5,2.83C112,75.15,90.2,86.48,62.31,86.48H48.11a6.91,6.91,0,0,0-6.81,5.85L34,138.42,32,151.5a3.66,3.66,0,0,0,3.59,4.2H60.73a6.07,6.07,0,0,0,6-5.11L67,149.3l4.75-30.07.3-1.67a6.06,6.06,0,0,1,6-5.11h3.76c24.4,0,43.5-9.91,49.08-38.57,2.33-12,1.12-22-5-29a24,24,0,0,0-6.89-5.32"/><path class="cls-3" d="M112.23,36.9c-1-.29-2-.55-3-.77s-2.11-.44-3.2-.61a78.73,78.73,0,0,0-12.51-.91H55.58a6,6,0,0,0-6,5.11L41.53,90.84l-.23,1.49a6.91,6.91,0,0,1,6.81-5.85h14.2c27.89,0,49.72-11.32,56.1-44.09.19-1,.35-1.91.5-2.83a35.61,35.61,0,0,0-5.25-2.22l-1.43-.44"/></g></g></svg>