<svg xmlns="http://www.w3.org/2000/svg" viewBox="0 0 1013.26 171.7"><defs><style>.cls-1{fill:#008ac9;}.cls-2{fill:#e3001b;}</style></defs><g id="Layer_2" data-name="Layer 2"><g id="Layer_1-2" data-name="Layer 1"><path id="path2491" class="cls-1" d="M182.52,76.69c-.11-3.52-1.77-5.33-5-5.45H160.35c-4.06.25-6.17,2.48-6.26,6.68v30.9c.09,4.34,2.42,6.55,6.93,6.67h15.75a5.17,5.17,0,0,0,4.08-1.85,4.42,4.42,0,0,0,1.67-3.61ZM132,72.3q.18-11.6,5.18-17.63a22.22,22.22,0,0,1,6.6-4.25,19.6,19.6,0,0,1,8-1.84h31.54q20.87.18,21.21,22.84v46.52a19.26,19.26,0,0,1-6.27,13.92,20.15,20.15,0,0,1-14.42,6.3H154.09V171.7H132V72.3"/><path id="path2493" class="cls-1" d="M244.42,111a3.55,3.55,0,0,0,1.76,3.09,5.79,5.79,0,0,0,4,1.4h16.95c3.82,0,5.81-1.48,5.93-4.49v-6.32c0-3.46-2-5.2-6.1-5.2H250.19c-2.21,0-3.74.37-4.59,1.06s-1.18,2.44-1.18,4.83Zm28.65-34.86c.11-3.39-1.87-5-5.94-4.9H222.7V48.58h50q21.87.36,22.22,21.18v47.41A22,22,0,0,1,289.42,132,18.67,18.67,0,0,1,275,138.16H244.76Q222.68,138,222.35,118V99.66q.18-20.94,21.37-21.3h29.35V76.14"/><path id="path2495" class="cls-1" d="M356.91,149a7.17,7.17,0,0,0,4.49-1.86,4.76,4.76,0,0,0,1.78-3.63v-5.38H334.93a22.89,22.89,0,0,1-8.83-1.41,20.44,20.44,0,0,1-7-4.69,22.69,22.69,0,0,1-4.75-7.49,23.51,23.51,0,0,1-1.52-9.08V48.58h22.06v59.73c0,4.79,2,7.18,5.92,7.18h15.57a6.87,6.87,0,0,0,4.81-1.85,4.68,4.68,0,0,0,1.95-3.75V48.58h21.88v98.71c-.13,7.31-2,13.15-5.61,17.59s-8.68,6.7-15.08,6.82h-51.5V149h44"/><path id="path2497" class="cls-1" d="M402.38,115.49h39.31c3.6-.12,5.47-1.56,5.58-4.33v-2a4.56,4.56,0,0,0-.52-1.95c-.88-1.71-2-2.56-3.24-2.56H424a21.77,21.77,0,0,1-14.87-6,17,17,0,0,1-6.47-13V68.71q.35-19.77,21.5-20.13h45.6V71.24H431.15c-4.53,0-6.82,1.39-6.82,4.17V77.6q0,4.31,7,4.31h19.43a18.3,18.3,0,0,1,13.27,6,20.18,20.18,0,0,1,5.76,13.9v16.54c-.12,4.64-2.27,9.28-6.4,13.9a18,18,0,0,1-6.14,4.72,25.3,25.3,0,0,1-8.73,1.22H402.38V115.49"/><path id="path2499" class="cls-1" d="M507.53,111a3.5,3.5,0,0,0,1.79,3.09,5.72,5.72,0,0,0,4,1.4h17c3.83,0,5.81-1.48,5.92-4.49v-6.32c0-3.46-2-5.2-6.1-5.2H513.3c-2.21,0-3.73.37-4.57,1.06s-1.2,2.44-1.2,4.83Zm28.66-34.86c.1-3.39-1.88-5-6-4.9H485.81V48.58h50.05q21.82.36,22.18,21.18v47.41A22,22,0,0,1,552.53,132a18.59,18.59,0,0,1-14.4,6.12H507.86q-22-.18-22.38-20.21V99.66q.15-20.94,21.36-21.3h29.35V76.14"/><path id="path2501" class="cls-1" d="M576,35.73c.14-6.12,2.39-11,6.81-14.72s9.92-5.66,16.88-5.77h14V37.13H605.2c-4.67.11-7,2.34-7.15,6.65v4.8h15.63V71.27H598.05v66.9H576V35.73"/><path id="path2503" class="cls-1" d="M676.43,75.72v-.53A3.52,3.52,0,0,0,675,72.3a6.52,6.52,0,0,0-3.8-1.06H655.85a6.76,6.76,0,0,0-4.78,1.68A4.82,4.82,0,0,0,648.76,77v9.1Zm-27.31,32v1.41a6.1,6.1,0,0,0,1.43,4.3,3.15,3.15,0,0,0,2.86,2h45.32v22.67H650.55a33.41,33.41,0,0,1-10.25-1.23,19.63,19.63,0,0,1-12-11.64,32.66,32.66,0,0,1-1.35-10.43l-.19-45.36q.36-20.56,21.47-20.92H678q20.61.36,20.92,21.69V88.19l-49.76,19.57"/><path id="path2505" class="cls-1" d="M745.58,138.16a46,46,0,0,1-9.15-.87,19.52,19.52,0,0,1-8.74-4.09,21,21,0,0,1-6.27-8.85,30.93,30.93,0,0,1-1.8-10.95V71.1a27.57,27.57,0,0,1,1-9.1,18.91,18.91,0,0,1,4.66-7.7A20.15,20.15,0,0,1,733.63,49a38.63,38.63,0,0,1,9.43-1h33.81v5.3h-33q-8.75,0-13.76,3.6c-3.43,2.62-5.18,7.13-5.18,13.48V112.7a28.12,28.12,0,0,0,1.36,8.67,15.24,15.24,0,0,0,11.82,10.69,36,36,0,0,0,7.81.79H777.4v5.31H745.58"/><path id="path2507" class="cls-1" d="M863.84,83.28H819.51q-8,.18-12.46,4.92c-3.1,3.21-4.63,7.62-4.63,13.21v13.5a28.57,28.57,0,0,0,.83,7.17,11.1,11.1,0,0,0,4.15,6,19.46,19.46,0,0,0,12.71,4.74H847c11.22-.12,16.87-6,16.87-17.77Zm5.27,30.48a54.87,54.87,0,0,1-.7,9A20.3,20.3,0,0,1,864,131a22.21,22.21,0,0,1-17.22,7.14H820.43c-6.86,0-12.41-2-16.71-6.12s-6.61-9.62-6.61-16.79V101.61q.33-23.07,23-23.62H864V72a20.71,20.71,0,0,0-4.25-12.93,13.39,13.39,0,0,0-6.34-4.84,32.59,32.59,0,0,0-8.24-1H797.26V48h45.42a67.31,67.31,0,0,1,11.3.87,13.27,13.27,0,0,1,4.81,2A15.75,15.75,0,0,1,863.14,55a28.17,28.17,0,0,1,6,18.13v40.65"/><path id="path2509" class="cls-1" d="M918.68,53.29q-18.43.35-18.12,20.14v64.73h-5.28V73.46Q894.91,48,919.53,48h5.87v5.3h-6.72"/><path id="path2511" class="cls-1" d="M1008,53.32H966.2a31.86,31.86,0,0,0-8.14,1,14.32,14.32,0,0,0-7.31,4.63,15.74,15.74,0,0,0-4.17,6.82,23.22,23.22,0,0,0-1,8.24v41.27c0,6.86,2,11.53,6,14a24,24,0,0,0,6.62,2.63,31.57,31.57,0,0,0,8.15,1h18.27c6.82,0,12.41-1.58,16.69-4.74,4.32-3,6.51-8.1,6.66-15.42Zm5.27,59.78q-.71,25.62-27.11,25.1H966.56a54.05,54.05,0,0,1-11.11-1,21.09,21.09,0,0,1-9.69-6.13,20.4,20.4,0,0,1-4.43-8.76,33.37,33.37,0,0,1-1-9.89V73.86q.35-26,26.23-25.84H1008V18.78h5.27V113.1"/><path id="path2513" class="cls-2" d="M9.47,45.17a27.11,27.11,0,0,1,5.2-1.73,33.52,33.52,0,0,1,65.6,0,24.06,24.06,0,0,1,12.25,5.93A48.88,48.88,0,0,0,92.19,41,44.95,44.95,0,0,0,2.51,43.12,62.79,62.79,0,0,0,2.4,49.6a28.59,28.59,0,0,1,7.07-4.43"/><path id="path2515" class="cls-2" d="M73.72,48.58H19.83a19.64,19.64,0,0,0-8,1.84,22.27,22.27,0,0,0-6.61,4.25c-3.34,4-5,9.9-5.17,17.63v42.12C.12,122.17,1.83,128,5.17,132a22,22,0,0,0,6.61,4.29,19.94,19.94,0,0,0,8,1.83H73.72q20.86-.18,21.21-22.85V71.42Q94.6,48.74,73.72,48.58"/></g></g></svg>