<svg xmlns="http://www.w3.org/2000/svg" xmlns:xlink="http://www.w3.org/1999/xlink" viewBox="0 0 806.92 275.61"><defs><style>.cls-1{fill-rule:evenodd;fill:url(#linear-gradient);}</style><linearGradient id="linear-gradient" x1="136.52" y1="-278.64" x2="138.37" y2="-282.2" gradientTransform="matrix(226.77, 0, 0, -77.46, -30760.69, -21578.46)" gradientUnits="userSpaceOnUse"><stop offset="0" stop-color="#6b195f"/><stop offset="1" stop-color="#4c255b"/></linearGradient></defs><g id="Layer_2" data-name="Layer 2"><g id="Layer_1-2" data-name="Layer 1"><g id="Page-1"><g id="skrill-logo-web-1-rgb"><path id="Fill-1" class="cls-1" d="M579.61,66.22a33.11,33.11,0,1,0-33.09-33.1,33.11,33.11,0,0,0,33.09,33.1ZM326,84.09a234.19,234.19,0,0,1-38.26,65.63V15.07l-69.32,13.7V272.83h69.32V197.39c20.07,30.11,30,75.44,30,75.44h83c-8.21-34.14-44.14-97.09-44.14-97.09C388.8,134.86,403,91.31,405.22,84.09Zm182.23-2.55c-62.09,2-93.6,29.85-93.6,85.22V272.83h67.73v-86.5c0-33.15,4.34-47.37,43.68-48.72V82.51c-6.62-1.4-17.81-1-17.81-1ZM102.12,111C93.63,110.41,74,109.14,74,91.44c0-21.35,28.3-21.35,38.91-21.35,18.66,0,42.83,5.51,60.1,10.68,0,0,9.62,3.39,17.82,6.87l.76.2V29.36l-1-.31c-20.37-7.12-44.05-14-88-14C26.83,15.07,0,59.18,0,97c0,21.78,9.34,73.05,96.06,79,7.35.45,26.86,1.57,26.86,19.86,0,15.09-16,24-42.84,24-29.44,0-58-7.51-75.35-14.63V265.4c26,6.81,55.24,10.21,89.55,10.21,74,0,107.2-41.74,107.2-83.1,0-46.9-37.11-77.38-99.36-81.55ZM546,272.83h67.19V84.3H546ZM739.72,27.09V272.83h67.2V15.07l-67.2,12Zm-98,0,67.13-12V272.83H641.68V27.09Z"/></g></g></g></g></svg>