<svg xmlns="http://www.w3.org/2000/svg" viewBox="0 0 567.06 183.97"><defs><style>.cls-1{fill:#2566af;}.cls-2{fill:#e6a540;}</style></defs><g id="Layer_2" data-name="Layer 2"><g id="Layer_1-2" data-name="Layer 1"><path class="cls-1" d="M245.83,180.9H199.56L228.48,3.18h46.27ZM160.63,3.18,116.52,125.42,111.3,99.09h0L95.73,19.18s-1.88-16-22-16H.86L0,6.19S22.3,10.82,48.4,26.5L88.6,180.91h48.21L210.43,3.18Zm364,177.72h42.48L530,3.17h-37.2c-17.17,0-21.36,13.25-21.36,13.25l-69,164.48h48.24l9.65-26.4h58.82l5.42,26.4ZM473.66,118,498,51.52,511.65,118ZM406.07,45.91l6.61-38.16S392.3,0,371.06,0c-23,0-77.49,10-77.49,58.84,0,45.91,64,46.48,64,70.6s-57.41,19.79-76.35,4.59l-6.88,39.9s20.66,10,52.23,10,79.21-16.35,79.21-60.85c0-46.21-64.58-50.51-64.58-70.6S386.27,35,406.07,45.91Z"/><path class="cls-2" d="M111.3,99.1,95.73,19.17s-1.88-16-22-16H.86L0,6.18s35.05,7.26,68.67,34.48C100.82,66.68,111.3,99.1,111.3,99.1Z"/></g></g></svg>